<svg version="1.1" xmlns="http://www.w3.org/2000/svg" style="display: block;" viewBox="0 0 2048 730" width="990" height="353">
<path transform="translate(0,0)" fill="rgb(239,50,50)" d="M 2.51431 726.686 C 8.45965 710.824 16.3355 695.473 23.6286 680.189 C 34.8874 656.801 46.0034 633.344 56.9757 609.82 L 192.785 321.848 C 227.52 247.278 262.716 172.925 298.371 98.7911 L 325.957 40.4552 C 331.572 28.5318 336.765 15.2 344.245 4.32872 C 356.261 0.66622 399.524 3.00941 415.188 3.0212 L 549.365 3.14843 L 548.828 6.51781 C 487.932 21.7922 449.294 51.1837 416.956 105.274 C 402.903 128.78 392.202 154.886 380.456 179.642 L 309.678 330.374 C 297.813 355.519 286.685 381.619 273.322 405.967 C 267.186 415.844 222.319 511.489 220.827 517.856 C 215.759 527.227 211.686 537.612 207.197 547.305 C 198.384 566.344 189.466 585.334 180.443 604.274 C 161.195 644.851 140.003 685.17 122.931 726.68 C 107.615 727.641 91.9918 727.026 76.6264 727.017 C 51.9219 727.108 27.217 726.997 2.51431 726.686 z"/>
<path transform="translate(0,0)" fill="rgb(157,156,156)" d="M 1246.66 3.73824 C 1283.09 2.86083 1319.55 4.10417 1355.96 3.18112 L 1356.07 330.495 L 1356.03 432.501 C 1356.03 472.39 1356.86 511.203 1348.54 550.517 C 1340 590.828 1322.05 630.401 1292.83 659.915 C 1243.26 709.985 1167.95 726.705 1099.64 726.942 C 1047.97 727.121 979.104 731.179 930.115 716.502 C 934.944 712.92 960.616 712.35 968.221 711.533 C 1015.08 706.495 1080.48 679.987 1120.71 655.56 C 1129.83 650.021 1140.6 643.867 1147.32 635.507 C 1194.57 607.678 1224.5 580.081 1238.72 525.293 C 1250.09 481.474 1246.35 433.591 1246.27 388.608 L 1246.08 258.856 C 1245.76 173.839 1247.49 88.7326 1246.66 3.73824 z"/>
<path transform="translate(0,0)" fill="rgb(40,39,39)" d="M 758.024 3.13126 C 794.668 3.2629 831.312 3.17801 867.955 2.87661 L 868.045 322.884 L 867.981 416.471 C 867.967 440.036 867.444 463.59 869.589 487.085 C 871.366 506.557 875.127 525.745 882.21 544.016 C 898.202 585.195 930.075 618.219 970.661 635.661 C 1027.24 660.522 1090.57 657.64 1147.32 635.507 C 1140.6 643.867 1129.83 650.021 1120.71 655.56 C 1080.48 679.987 1015.08 706.495 968.221 711.533 C 960.616 712.35 934.944 712.92 930.115 716.502 C 929.971 716.502 929.826 716.509 929.682 716.502 C 921.033 716.096 911.161 712.633 902.966 709.807 C 870.704 698.683 841.851 682.388 817.932 657.766 C 788.381 627.347 772.427 588.584 764.35 547.445 C 756.838 509.185 757.792 471.239 757.807 432.482 L 757.83 327.28 C 757.839 219.28 756.564 111.109 758.024 3.13126 z"/>
<path transform="translate(0,0)" fill="rgb(40,39,39)" d="M 1439.96 354.191 C 1440.13 322.726 1438.94 290.8 1441.2 259.421 C 1445.99 192.799 1468.98 129.232 1516.98 81.7087 C 1604.16 -4.62251 1709.14 3.08867 1821.82 3.05026 L 1966.2 3.04261 C 1991.14 3.04478 2016.32 3.77245 2041.23 2.91861 L 2041.26 62.6211 C 2041.22 74.6613 2040.66 87.0028 2041.5 99.0148 L 1852.25 99.029 C 1803.67 99.0228 1744.81 94.9121 1697.94 106.196 C 1663.78 114.419 1630.83 131.365 1605.88 156.315 C 1552.89 209.305 1552.68 268.58 1552.61 338.52 L 1552.56 434.807 C 1553.08 449.401 1552.92 464.621 1555.99 478.934 C 1534.33 449.45 1504.61 428.595 1470.37 415.91 C 1463.49 413.361 1446.91 405.657 1440.05 408.802 L 1440.35 404.562 C 1440.52 387.797 1440.06 370.963 1439.96 354.191 z"/>
<path transform="translate(0,0)" fill="rgb(98,97,97)" d="M 1456.65 350.058 C 1475.77 336.614 1493.85 321.614 1512.96 308.071 C 1525.53 299.168 1539.54 291.893 1551.49 282.227 C 1552.71 300.609 1549.96 429.123 1552.56 434.807 C 1553.08 449.401 1552.92 464.621 1555.99 478.934 C 1534.33 449.45 1504.61 428.595 1470.37 415.91 C 1463.49 413.361 1446.91 405.657 1440.05 408.802 L 1440.35 404.562 C 1440.52 387.797 1440.06 370.963 1439.96 354.191 C 1443.77 350.264 1451.45 350.421 1456.65 350.058 z"/>
<path transform="translate(0,0)" fill="rgb(66,64,66)" d="M 1439.96 354.191 C 1443.77 350.264 1451.45 350.421 1456.65 350.058 C 1449.57 354.412 1443.96 357.503 1441.75 366.11 C 1438.7 377.976 1443.86 392.108 1440.35 404.562 C 1440.52 387.797 1440.06 370.963 1439.96 354.191 z"/>
<path transform="translate(0,0)" fill="rgb(40,39,39)" d="M 549.365 3.14843 L 622.457 3.06995 C 634.808 3.05954 647.402 3.60212 659.725 2.97898 L 659.368 726.99 C 622.427 727.287 585.215 727.93 548.299 726.913 C 549.444 704.759 548.587 682.294 548.58 660.097 C 548.381 612.706 548.501 565.313 548.938 517.924 L 549.03 440.412 C 549.032 430.41 550.866 416.11 548.45 406.695 L 546.261 405.578 L 548.011 404.591 C 549.764 401.31 548.656 37.8895 548.828 6.51781 L 549.365 3.14843 z"/>
<path transform="translate(0,0)" fill="rgb(157,156,156)" d="M 1766.37 307.314 L 2042.94 306.865 C 2044.73 325.79 2043.78 345.367 2043.77 364.375 L 2043.83 459.087 C 2043.91 548.206 2045.52 637.673 2043.7 726.75 C 2007.15 727.044 1970.6 727.108 1934.06 726.943 C 1932.85 695.096 1933.87 662.77 1933.78 630.867 L 1933.92 486.985 C 1934 463.457 1933.09 439.674 1934.14 416.183 L 1765.92 416.263 C 1767.1 379.981 1765.46 343.605 1766.37 307.314 z"/>
<path transform="translate(0,0)" fill="rgb(239,50,50)" d="M 1440.05 408.802 C 1446.91 405.657 1463.49 413.361 1470.37 415.91 C 1504.61 428.595 1534.33 449.45 1555.99 478.934 C 1567.04 528.642 1590.2 568.958 1633.85 596.793 C 1686.83 630.575 1744.02 630.96 1804.7 630.93 L 1894.16 630.858 C 1907.23 630.833 1920.76 629.951 1933.78 630.867 C 1933.87 662.77 1932.85 695.096 1934.06 726.943 L 1735.53 727.028 C 1653.31 726.634 1571.49 707.621 1511.98 647.441 C 1467.5 602.464 1445.42 542.524 1440.81 480.05 C 1439.07 456.499 1439.92 432.406 1440.05 408.802 z"/>
<path transform="translate(0,0)" fill="rgb(157,156,156)" d="M 273.322 405.967 C 290.232 402.489 312.57 404.637 330.106 404.731 L 425.19 404.912 L 505.201 404.856 C 518.31 404.823 533.412 403.189 546.261 405.578 L 548.45 406.695 C 550.866 416.11 549.032 430.41 549.03 440.412 L 548.938 517.924 C 509.132 520.122 468.441 518.238 428.529 518.265 C 359.332 518.311 290.008 519.017 220.827 517.856 C 222.319 511.489 267.186 415.844 273.322 405.967 z"/>
</svg>